{
	"accessors": [
		{
			"bufferView": 0,
			"componentType": 5126,
			"count": 190,
			"max": [0.023212, 0.110269, 0.026732],
			"min": [-0.023212, 0.002428, -0.026874],
			"normalized": false,
			"type": "VEC3"
		},
		{
			"bufferView": 1,
			"componentType": 5126,
			"count": 190,
			"max": [0.695777, 0.577156, 0.996734, 1],
			"min": [-1, -0.958002, -0.741281, 1],
			"normalized": false,
			"type": "VEC4"
		},
		{
			"bufferView": 2,
			"componentType": 5126,
			"count": 190,
			"max": [0.996752, 1, 0.953102],
			"min": [-0.996756, -1, -0.960758],
			"normalized": false,
			"type": "VEC3"
		},
		{
			"bufferView": 3,
			"componentType": 5126,
			"count": 190,
			"max": [0.205968, 0.449555],
			"min": [0.169294, 0.165957],
			"normalized": false,
			"type": "VEC2"
		},
		{
			"bufferView": 5,
			"componentType": 5125,
			"count": 288,
			"max": [189],
			"min": [0],
			"normalized": false,
			"type": "SCALAR"
		}
	],
	"asset": {
		"generator": "Godot Engine v4.7.2.stable.official@ed1daf0bf001b61586d9930840f2f1394092c079",
		"version": "2.0"
	},
	"bufferViews": [
		{
			"buffer": 0,
			"byteLength": 2280,
			"byteStride": 12,
			"target": 34962
		},
		{
			"buffer": 0,
			"byteLength": 3040,
			"byteOffset": 2280,
			"byteStride": 16,
			"target": 34962
		},
		{
			"buffer": 0,
			"byteLength": 2280,
			"byteOffset": 5320,
			"byteStride": 12,
			"target": 34962
		},
		{
			"buffer": 0,
			"byteLength": 1520,
			"byteOffset": 7600,
			"byteStride": 8,
			"target": 34962
		},
		{
			"buffer": 0,
			"byteLength": 288,
			"byteOffset": 9120,
			"target": 34963
		},
		{
			"buffer": 0,
			"byteOffset": 9408,
			"byteLength": 1152
		}
	],
	"buffers": [
		{
			"byteLength": 10560,
			"uri": "Blue_Potion0.bin"
		}
	],
	"extensionsUsed": [
		"GODOT_single_root",
		"KHR_materials_emissive_strength"
	],
	"images": [
		{
			"name": "Texture2",
			"uri": "../textures/Texture2.png"
		}
	],
	"materials": [
		{
			"emissiveFactor": [0.957641, 0.957641, 0.957641],
			"extensions": {
				"KHR_materials_emissive_strength": {
					"emissiveStrength": 0
				}
			},
			"name": "Texture",
			"pbrMetallicRoughness": {
				"baseColorFactor": [0.8, 0.8, 0.8, 0.8],
				"baseColorTexture": {
					"index": 0
				},
				"metallicFactor": 0,
				"roughnessFactor": 1
			}
		}
	],
	"meshes": [
		{
			"primitives": [
				{
					"attributes": {
						"NORMAL": 2,
						"POSITION": 0,
						"TANGENT": 1,
						"TEXCOORD_0": 3
					},
					"indices": 4,
					"material": 0,
					"mode": 4
				}
			]
		}
	],
	"nodes": [
		{
			"children": [1],
			"name": "Blue_Potion"
		},
		{
			"mesh": 0,
			"name": "Blue_Potion2"
		}
	],
	"samplers": [
		{
			"magFilter": 9729,
			"minFilter": 9987,
			"wrapS": 10497,
			"wrapT": 10497
		}
	],
	"scene": 0,
	"scenes": [
		{
			"nodes": [0]
		}
	],
	"textures": [
		{
			"sampler": 0,
			"source": 0
		}
	]
}