{
	"accessors": [
		{
			"bufferView": 0,
			"componentType": 5126,
			"count": 280,
			"max": [0.077541, 0.096838, 0.04176],
			"min": [-0.081403, -0.001147, -0.057969],
			"normalized": false,
			"type": "VEC3"
		},
		{
			"bufferView": 1,
			"componentType": 5126,
			"count": 280,
			"max": [0.55681, 0.622237, 0.998514, 1],
			"min": [-0.999997, -0.991008, -0.48328, 1],
			"normalized": false,
			"type": "VEC4"
		},
		{
			"bufferView": 2,
			"componentType": 5126,
			"count": 280,
			"max": [0.998621, 0.999997, 0.991031],
			"min": [-0.989556, -0.999712, -0.991067],
			"normalized": false,
			"type": "VEC3"
		},
		{
			"bufferView": 3,
			"componentType": 5126,
			"count": 280,
			"max": [0.467175, 0.470653],
			"min": [0.0451, 0.030009],
			"normalized": false,
			"type": "VEC2"
		},
		{
			"bufferView": 4,
			"componentType": 5123,
			"count": 420,
			"max": [279],
			"min": [0],
			"normalized": false,
			"type": "SCALAR"
		}
	],
	"asset": {
		"generator": "Godot Engine v4.7.2.stable.official@ed1daf0bf001b61586d9930840f2f1394092c079",
		"version": "2.0"
	},
	"bufferViews": [
		{
			"buffer": 0,
			"byteLength": 3360,
			"byteStride": 12,
			"target": 34962
		},
		{
			"buffer": 0,
			"byteLength": 4480,
			"byteOffset": 3360,
			"byteStride": 16,
			"target": 34962
		},
		{
			"buffer": 0,
			"byteLength": 3360,
			"byteOffset": 7840,
			"byteStride": 12,
			"target": 34962
		},
		{
			"buffer": 0,
			"byteLength": 2240,
			"byteOffset": 11200,
			"byteStride": 8,
			"target": 34962
		},
		{
			"buffer": 0,
			"byteLength": 840,
			"byteOffset": 13440,
			"target": 34963
		}
	],
	"buffers": [
		{
			"byteLength": 14280,
			"uri": "Book_Pile_Small0.bin"
		}
	],
	"extensionsUsed": [
		"GODOT_single_root",
		"KHR_materials_emissive_strength"
	],
	"images": [
		{
			"name": "Texture2",
			"uri": "../textures/Texture2.png"
		}
	],
	"materials": [
		{
			"emissiveFactor": [0.957641, 0.957641, 0.957641],
			"extensions": {
				"KHR_materials_emissive_strength": {
					"emissiveStrength": 0
				}
			},
			"name": "Texture",
			"pbrMetallicRoughness": {
				"baseColorFactor": [0.8, 0.8, 0.8, 0.8],
				"baseColorTexture": {
					"index": 0
				},
				"metallicFactor": 0,
				"roughnessFactor": 1
			}
		}
	],
	"meshes": [
		{
			"primitives": [
				{
					"attributes": {
						"NORMAL": 2,
						"POSITION": 0,
						"TANGENT": 1,
						"TEXCOORD_0": 3
					},
					"indices": 4,
					"material": 0,
					"mode": 4
				}
			]
		}
	],
	"nodes": [
		{
			"children": [1],
			"name": "Book_Pile_Small"
		},
		{
			"mesh": 0,
			"name": "Book_Pile_Small2"
		}
	],
	"samplers": [
		{
			"magFilter": 9729,
			"minFilter": 9987,
			"wrapS": 10497,
			"wrapT": 10497
		}
	],
	"scene": 0,
	"scenes": [
		{
			"nodes": [0]
		}
	],
	"textures": [
		{
			"sampler": 0,
			"source": 0
		}
	]
}