{
	"accessors": [
		{
			"bufferView": 0,
			"componentType": 5126,
			"count": 246,
			"max": [1.3677, 1.946094, 1.257069],
			"min": [-1.342423, -0.202451, -1.601245],
			"normalized": false,
			"type": "VEC3"
		},
		{
			"bufferView": 1,
			"componentType": 5126,
			"count": 246,
			"max": [0.9805, 0.999886, 0.882692, 1],
			"min": [-0.784495, -0.969537, -0.95629, 1],
			"normalized": false,
			"type": "VEC4"
		},
		{
			"bufferView": 2,
			"componentType": 5126,
			"count": 246,
			"max": [0.984102, 0.933273, 0.977687],
			"min": [-0.965818, -0.999331, -0.962516],
			"normalized": false,
			"type": "VEC3"
		},
		{
			"bufferView": 3,
			"componentType": 5126,
			"count": 246,
			"max": [0.031977, 0.993378],
			"min": [0.031742, 0.549157],
			"normalized": false,
			"type": "VEC2"
		},
		{
			"bufferView": 4,
			"componentType": 5126,
			"count": 246,
			"max": [1, 1, 1, 1],
			"min": [1, 1, 1, 1],
			"normalized": false,
			"type": "VEC4"
		},
		{
			"bufferView": 12,
			"componentType": 5125,
			"count": 246,
			"max": [245],
			"min": [0],
			"normalized": false,
			"type": "SCALAR"
		},
		{
			"bufferView": 6,
			"componentType": 5126,
			"count": 840,
			"max": [1.310116, 1.94847, 1.300836],
			"min": [-1.367619, 0.331499, -1.500524],
			"normalized": false,
			"type": "VEC3"
		},
		{
			"bufferView": 7,
			"componentType": 5126,
			"count": 840,
			"max": [0.990689, 0.996006, 0.96071, 1],
			"min": [-0.851209, -0.99541, -0.970405, 1],
			"normalized": false,
			"type": "VEC4"
		},
		{
			"bufferView": 8,
			"componentType": 5126,
			"count": 840,
			"max": [0.94339, 0.993424, 0.999789],
			"min": [-0.943235, -0.998278, -0.999818],
			"normalized": false,
			"type": "VEC3"
		},
		{
			"bufferView": 9,
			"componentType": 5126,
			"count": 840,
			"max": [0.047768, 0.967803],
			"min": [0.047691, 0.136049],
			"normalized": false,
			"type": "VEC2"
		},
		{
			"bufferView": 10,
			"componentType": 5126,
			"count": 840,
			"max": [1, 1, 1, 1],
			"min": [1, 1, 1, 1],
			"normalized": false,
			"type": "VEC4"
		},
		{
			"bufferView": 11,
			"componentType": 5123,
			"count": 840,
			"max": [839],
			"min": [0],
			"normalized": false,
			"type": "SCALAR"
		}
	],
	"asset": {
		"generator": "Godot Engine v4.7.2.stable.official@ed1daf0bf001b61586d9930840f2f1394092c079",
		"version": "2.0"
	},
	"bufferViews": [
		{
			"buffer": 0,
			"byteLength": 2952,
			"byteStride": 12,
			"target": 34962
		},
		{
			"buffer": 0,
			"byteLength": 3936,
			"byteOffset": 2952,
			"byteStride": 16,
			"target": 34962
		},
		{
			"buffer": 0,
			"byteLength": 2952,
			"byteOffset": 6888,
			"byteStride": 12,
			"target": 34962
		},
		{
			"buffer": 0,
			"byteLength": 1968,
			"byteOffset": 9840,
			"byteStride": 8,
			"target": 34962
		},
		{
			"buffer": 0,
			"byteLength": 3936,
			"byteOffset": 11808,
			"byteStride": 16,
			"target": 34962
		},
		{
			"buffer": 0,
			"byteLength": 246,
			"byteOffset": 15744,
			"target": 34963
		},
		{
			"buffer": 0,
			"byteLength": 10080,
			"byteOffset": 15992,
			"byteStride": 12,
			"target": 34962
		},
		{
			"buffer": 0,
			"byteLength": 13440,
			"byteOffset": 26072,
			"byteStride": 16,
			"target": 34962
		},
		{
			"buffer": 0,
			"byteLength": 10080,
			"byteOffset": 39512,
			"byteStride": 12,
			"target": 34962
		},
		{
			"buffer": 0,
			"byteLength": 6720,
			"byteOffset": 49592,
			"byteStride": 8,
			"target": 34962
		},
		{
			"buffer": 0,
			"byteLength": 13440,
			"byteOffset": 56312,
			"byteStride": 16,
			"target": 34962
		},
		{
			"buffer": 0,
			"byteLength": 1680,
			"byteOffset": 69752,
			"target": 34963
		},
		{
			"buffer": 0,
			"byteOffset": 71432,
			"byteLength": 984
		}
	],
	"buffers": [
		{
			"byteLength": 72416,
			"uri": "Bush_with_Flowers_flat0.bin"
		}
	],
	"extensionsUsed": [
		"GODOT_single_root"
	],
	"images": [
		{
			"name": "Flat_Atlas",
			"uri": "../textures/Flat_Atlas.png"
		}
	],
	"materials": [
		{
			"doubleSided": true,
			"name": "H4B_bush",
			"pbrMetallicRoughness": {
				"baseColorFactor": [0.035601, 0.283149, 0.076185, 1],
				"baseColorTexture": {
					"index": 0
				},
				"metallicFactor": 0,
				"roughnessFactor": 0.5
			}
		},
		{
			"doubleSided": true,
			"name": "H4B_mapple",
			"pbrMetallicRoughness": {
				"baseColorFactor": [0.916708, 0.028996, 0.029819, 1],
				"baseColorTexture": {
					"index": 1
				},
				"metallicFactor": 0,
				"roughnessFactor": 0.5
			}
		}
	],
	"meshes": [
		{
			"primitives": [
				{
					"attributes": {
						"COLOR_0": 4,
						"NORMAL": 2,
						"POSITION": 0,
						"TANGENT": 1,
						"TEXCOORD_0": 3
					},
					"indices": 5,
					"material": 0,
					"mode": 4
				},
				{
					"attributes": {
						"COLOR_0": 10,
						"NORMAL": 8,
						"POSITION": 6,
						"TANGENT": 7,
						"TEXCOORD_0": 9
					},
					"indices": 11,
					"material": 1,
					"mode": 4
				}
			]
		}
	],
	"nodes": [
		{
			"children": [1],
			"name": "Bush_with_Flowers_flat2"
		},
		{
			"mesh": 0,
			"name": "Bush_with_Flowers_flat"
		}
	],
	"samplers": [
		{
			"magFilter": 9729,
			"minFilter": 9987,
			"wrapS": 10497,
			"wrapT": 10497
		}
	],
	"scene": 0,
	"scenes": [
		{
			"nodes": [0]
		}
	],
	"textures": [
		{
			"sampler": 0,
			"source": 0
		},
		{
			"sampler": 0,
			"source": 0
		}
	]
}