{
	"accessors": [
		{
			"bufferView": 0,
			"componentType": 5126,
			"count": 16,
			"max": [2.045077, 2.030599, 0.274658],
			"min": [-0.045078, -0.0306, -0.274659],
			"normalized": false,
			"type": "VEC3"
		},
		{
			"bufferView": 1,
			"componentType": 5126,
			"count": 16,
			"max": [-0.965927, 0.173588, -0.000053, 1],
			"min": [-0.984818, -0.258816, -0.000094, 1],
			"normalized": false,
			"type": "VEC4"
		},
		{
			"bufferView": 2,
			"componentType": 5126,
			"count": 16,
			"max": [0.258776, -0.000019, 0.984808],
			"min": [-0.173648, -0.000053, 0.965937],
			"normalized": false,
			"type": "VEC3"
		},
		{
			"bufferView": 3,
			"componentType": 5126,
			"count": 16,
			"max": [0.589607, 0.98548],
			"min": [0.100354, 0.415504],
			"normalized": false,
			"type": "VEC2"
		},
		{
			"bufferView": 5,
			"componentType": 5125,
			"count": 24,
			"max": [15],
			"min": [0],
			"normalized": false,
			"type": "SCALAR"
		}
	],
	"asset": {
		"generator": "Godot Engine v4.7.2.stable.official@ed1daf0bf001b61586d9930840f2f1394092c079",
		"version": "2.0"
	},
	"bufferViews": [
		{
			"buffer": 0,
			"byteLength": 192,
			"byteStride": 12,
			"target": 34962
		},
		{
			"buffer": 0,
			"byteLength": 256,
			"byteOffset": 192,
			"byteStride": 16,
			"target": 34962
		},
		{
			"buffer": 0,
			"byteLength": 192,
			"byteOffset": 448,
			"byteStride": 12,
			"target": 34962
		},
		{
			"buffer": 0,
			"byteLength": 128,
			"byteOffset": 640,
			"byteStride": 8,
			"target": 34962
		},
		{
			"buffer": 0,
			"byteLength": 24,
			"byteOffset": 768,
			"target": 34963
		},
		{
			"buffer": 0,
			"byteOffset": 792,
			"byteLength": 96
		}
	],
	"buffers": [
		{
			"byteLength": 888,
			"uri": "bush_tall_overgrown_summer0.bin"
		}
	],
	"extensionsUsed": [
		"GODOT_single_root"
	],
	"images": [
		{
			"name": "bush_tall_overgrown_summer_0",
			"uri": "../textures/bush_tall_overgrown_summer_0.png"
		}
	],
	"materials": [
		{
			"alphaMode": "BLEND",
			"emissiveFactor": [0, 0, 0],
			"name": "bush",
			"pbrMetallicRoughness": {
				"baseColorFactor": [1, 1, 1, 1],
				"baseColorTexture": {
					"index": 0
				},
				"metallicFactor": 0,
				"roughnessFactor": 1
			}
		}
	],
	"meshes": [
		{
			"primitives": [
				{
					"attributes": {
						"NORMAL": 2,
						"POSITION": 0,
						"TANGENT": 1,
						"TEXCOORD_0": 3
					},
					"indices": 4,
					"material": 0,
					"mode": 4
				}
			]
		}
	],
	"nodes": [
		{
			"children": [1],
			"name": "bush_tall_overgrown_summer"
		},
		{
			"mesh": 0,
			"name": "bush_tall_overgrown_summer2"
		}
	],
	"samplers": [
		{
			"magFilter": 9729,
			"minFilter": 9987,
			"wrapS": 10497,
			"wrapT": 10497
		}
	],
	"scene": 0,
	"scenes": [
		{
			"nodes": [0]
		}
	],
	"textures": [
		{
			"sampler": 0,
			"source": 0
		}
	]
}