{
	"accessors": [
		{
			"bufferView": 0,
			"componentType": 5126,
			"count": 624,
			"max": [0.081362, 0.459821, 0.172068],
			"min": [0.022196, 0, -0.171953],
			"normalized": false,
			"type": "VEC3"
		},
		{
			"bufferView": 1,
			"componentType": 5126,
			"count": 624,
			"max": [0.000031, 0, 1, 1],
			"min": [-1, -1, -0.56321, 1],
			"normalized": false,
			"type": "VEC4"
		},
		{
			"bufferView": 2,
			"componentType": 5126,
			"count": 624,
			"max": [1, 1, 1],
			"min": [-1, -1, -1],
			"normalized": false,
			"type": "VEC3"
		},
		{
			"bufferView": 3,
			"componentType": 5126,
			"count": 624,
			"max": [0.459197, 0.344353],
			"min": [0.029632, 0.160872],
			"normalized": false,
			"type": "VEC2"
		},
		{
			"bufferView": 4,
			"componentType": 5123,
			"count": 936,
			"max": [623],
			"min": [0],
			"normalized": false,
			"type": "SCALAR"
		}
	],
	"asset": {
		"generator": "Godot Engine v4.7.2.stable.official@ed1daf0bf001b61586d9930840f2f1394092c079",
		"version": "2.0"
	},
	"bufferViews": [
		{
			"buffer": 0,
			"byteLength": 7488,
			"byteStride": 12,
			"target": 34962
		},
		{
			"buffer": 0,
			"byteLength": 9984,
			"byteOffset": 7488,
			"byteStride": 16,
			"target": 34962
		},
		{
			"buffer": 0,
			"byteLength": 7488,
			"byteOffset": 17472,
			"byteStride": 12,
			"target": 34962
		},
		{
			"buffer": 0,
			"byteLength": 4992,
			"byteOffset": 24960,
			"byteStride": 8,
			"target": 34962
		},
		{
			"buffer": 0,
			"byteLength": 1872,
			"byteOffset": 29952,
			"target": 34963
		}
	],
	"buffers": [
		{
			"byteLength": 31824,
			"uri": "Door0.bin"
		}
	],
	"extensionsUsed": [
		"GODOT_single_root",
		"KHR_materials_emissive_strength"
	],
	"images": [
		{
			"name": "Texture2",
			"uri": "../textures/Texture2.png"
		}
	],
	"materials": [
		{
			"emissiveFactor": [0.957641, 0.957641, 0.957641],
			"extensions": {
				"KHR_materials_emissive_strength": {
					"emissiveStrength": 0
				}
			},
			"name": "Texture",
			"pbrMetallicRoughness": {
				"baseColorFactor": [0.8, 0.8, 0.8, 0.8],
				"baseColorTexture": {
					"index": 0
				},
				"metallicFactor": 0,
				"roughnessFactor": 1
			}
		}
	],
	"meshes": [
		{
			"primitives": [
				{
					"attributes": {
						"NORMAL": 2,
						"POSITION": 0,
						"TANGENT": 1,
						"TEXCOORD_0": 3
					},
					"indices": 4,
					"material": 0,
					"mode": 4
				}
			]
		}
	],
	"nodes": [
		{
			"children": [1],
			"name": "Door"
		},
		{
			"children": [2],
			"name": "Door_Pivot"
		},
		{
			"mesh": 0,
			"name": "Door2"
		}
	],
	"samplers": [
		{
			"magFilter": 9729,
			"minFilter": 9987,
			"wrapS": 10497,
			"wrapT": 10497
		}
	],
	"scene": 0,
	"scenes": [
		{
			"nodes": [0]
		}
	],
	"textures": [
		{
			"sampler": 0,
			"source": 0
		}
	]
}