{
	"accessors": [
		{
			"bufferView": 0,
			"componentType": 5126,
			"count": 624,
			"max": [0.349445, 1.533328, 0.559472],
			"min": [-0.547727, 0.847601, -0.58782],
			"normalized": false,
			"type": "VEC3"
		},
		{
			"bufferView": 1,
			"componentType": 5126,
			"count": 624,
			"max": [0.974799, 0.944763, 0.968906, 1],
			"min": [-0.994397, -0.997651, -0.993406, -1],
			"normalized": false,
			"type": "VEC4"
		},
		{
			"bufferView": 2,
			"componentType": 5126,
			"count": 624,
			"max": [0.992715, 0.993523, 0.990149],
			"min": [-0.992681, -0.992593, -0.993954],
			"normalized": false,
			"type": "VEC3"
		},
		{
			"bufferView": 3,
			"componentType": 5126,
			"count": 624,
			"max": [0.468723, 1],
			"min": [0.464968, 0.527611],
			"normalized": false,
			"type": "VEC2"
		},
		{
			"bufferView": 4,
			"componentType": 5123,
			"count": 684,
			"max": [623],
			"min": [0],
			"normalized": false,
			"type": "SCALAR"
		},
		{
			"bufferView": 5,
			"componentType": 5126,
			"count": 504,
			"max": [0.426168, 1.55697, 0.582192],
			"min": [-0.572319, 0.733391, -0.635953],
			"normalized": false,
			"type": "VEC3"
		},
		{
			"bufferView": 6,
			"componentType": 5126,
			"count": 504,
			"max": [0.996913, 0.821262, 0.990336, 1],
			"min": [-0.998393, -0.879969, -0.987093, -1],
			"normalized": false,
			"type": "VEC4"
		},
		{
			"bufferView": 7,
			"componentType": 5126,
			"count": 504,
			"max": [0.992222, 0.987724, 0.999738],
			"min": [-0.993073, -0.985481, -0.999251],
			"normalized": false,
			"type": "VEC3"
		},
		{
			"bufferView": 8,
			"componentType": 5126,
			"count": 504,
			"max": [0.535129, 1],
			"min": [0.531347, 0.527611],
			"normalized": false,
			"type": "VEC2"
		},
		{
			"bufferView": 9,
			"componentType": 5123,
			"count": 504,
			"max": [503],
			"min": [0],
			"normalized": false,
			"type": "SCALAR"
		},
		{
			"bufferView": 10,
			"componentType": 5126,
			"count": 1824,
			"max": [0.934163, 1.421225, 0.720618],
			"min": [-1.008212, -0.195113, -0.752634],
			"normalized": false,
			"type": "VEC3"
		},
		{
			"bufferView": 11,
			"componentType": 5126,
			"count": 1824,
			"max": [1, 0.936638, 0.995885, 1],
			"min": [-0.995588, -0.460095, -0.999582, -1],
			"normalized": false,
			"type": "VEC4"
		},
		{
			"bufferView": 12,
			"componentType": 5126,
			"count": 1824,
			"max": [0.999037, 0.998219, 0.996933],
			"min": [-0.998215, -0.998366, -0.996948],
			"normalized": false,
			"type": "VEC3"
		},
		{
			"bufferView": 13,
			"componentType": 5126,
			"count": 1824,
			"max": [0.136669, 1],
			"min": [0.132955, 0],
			"normalized": false,
			"type": "VEC2"
		},
		{
			"bufferView": 14,
			"componentType": 5123,
			"count": 2556,
			"max": [1823],
			"min": [0],
			"normalized": false,
			"type": "SCALAR"
		}
	],
	"asset": {
		"generator": "Godot Engine v4.7.2.stable.official@ed1daf0bf001b61586d9930840f2f1394092c079",
		"version": "2.0"
	},
	"bufferViews": [
		{
			"buffer": 0,
			"byteLength": 7488,
			"byteStride": 12,
			"target": 34962
		},
		{
			"buffer": 0,
			"byteLength": 9984,
			"byteOffset": 7488,
			"byteStride": 16,
			"target": 34962
		},
		{
			"buffer": 0,
			"byteLength": 7488,
			"byteOffset": 17472,
			"byteStride": 12,
			"target": 34962
		},
		{
			"buffer": 0,
			"byteLength": 4992,
			"byteOffset": 24960,
			"byteStride": 8,
			"target": 34962
		},
		{
			"buffer": 0,
			"byteLength": 1368,
			"byteOffset": 29952,
			"target": 34963
		},
		{
			"buffer": 0,
			"byteLength": 6048,
			"byteOffset": 31320,
			"byteStride": 12,
			"target": 34962
		},
		{
			"buffer": 0,
			"byteLength": 8064,
			"byteOffset": 37368,
			"byteStride": 16,
			"target": 34962
		},
		{
			"buffer": 0,
			"byteLength": 6048,
			"byteOffset": 45432,
			"byteStride": 12,
			"target": 34962
		},
		{
			"buffer": 0,
			"byteLength": 4032,
			"byteOffset": 51480,
			"byteStride": 8,
			"target": 34962
		},
		{
			"buffer": 0,
			"byteLength": 1008,
			"byteOffset": 55512,
			"target": 34963
		},
		{
			"buffer": 0,
			"byteLength": 21888,
			"byteOffset": 56520,
			"byteStride": 12,
			"target": 34962
		},
		{
			"buffer": 0,
			"byteLength": 29184,
			"byteOffset": 78408,
			"byteStride": 16,
			"target": 34962
		},
		{
			"buffer": 0,
			"byteLength": 21888,
			"byteOffset": 107592,
			"byteStride": 12,
			"target": 34962
		},
		{
			"buffer": 0,
			"byteLength": 14592,
			"byteOffset": 129480,
			"byteStride": 8,
			"target": 34962
		},
		{
			"buffer": 0,
			"byteLength": 5112,
			"byteOffset": 144072,
			"target": 34963
		}
	],
	"buffers": [
		{
			"byteLength": 149184,
			"uri": "Flowers_Red_flat0.bin"
		}
	],
	"extensionsUsed": [
		"GODOT_single_root"
	],
	"images": [
		{
			"name": "Flat_Atlas",
			"uri": "../textures/Flat_Atlas.png"
		}
	],
	"materials": [
		{
			"doubleSided": true,
			"name": "pale pink",
			"pbrMetallicRoughness": {
				"baseColorFactor": [0.801071, 0.240817, 0.262973, 1],
				"baseColorTexture": {
					"index": 0
				},
				"metallicFactor": 0,
				"roughnessFactor": 0.5
			}
		},
		{
			"doubleSided": true,
			"name": "H4B_red",
			"pbrMetallicRoughness": {
				"baseColorFactor": [0.911111, 0.022589, 0.086073, 1],
				"baseColorTexture": {
					"index": 1
				},
				"metallicFactor": 0,
				"roughnessFactor": 0.5
			}
		},
		{
			"doubleSided": true,
			"name": "H4B_bush",
			"pbrMetallicRoughness": {
				"baseColorFactor": [0.035601, 0.283149, 0.076185, 1],
				"baseColorTexture": {
					"index": 2
				},
				"metallicFactor": 0,
				"roughnessFactor": 0.5
			}
		}
	],
	"meshes": [
		{
			"primitives": [
				{
					"attributes": {
						"NORMAL": 2,
						"POSITION": 0,
						"TANGENT": 1,
						"TEXCOORD_0": 3
					},
					"indices": 4,
					"material": 0,
					"mode": 4
				},
				{
					"attributes": {
						"NORMAL": 7,
						"POSITION": 5,
						"TANGENT": 6,
						"TEXCOORD_0": 8
					},
					"indices": 9,
					"material": 1,
					"mode": 4
				},
				{
					"attributes": {
						"NORMAL": 12,
						"POSITION": 10,
						"TANGENT": 11,
						"TEXCOORD_0": 13
					},
					"indices": 14,
					"material": 2,
					"mode": 4
				}
			]
		}
	],
	"nodes": [
		{
			"children": [1],
			"name": "Flowers_Red_flat2"
		},
		{
			"mesh": 0,
			"name": "Flowers_Red_flat"
		}
	],
	"samplers": [
		{
			"magFilter": 9729,
			"minFilter": 9987,
			"wrapS": 10497,
			"wrapT": 10497
		}
	],
	"scene": 0,
	"scenes": [
		{
			"nodes": [0]
		}
	],
	"textures": [
		{
			"sampler": 0,
			"source": 0
		},
		{
			"sampler": 0,
			"source": 0
		},
		{
			"sampler": 0,
			"source": 0
		}
	]
}