{
	"accessors": [
		{
			"bufferView": 0,
			"componentType": 5126,
			"count": 54,
			"max": [0.08201, 1.314189, -0.063183],
			"min": [-0.139014, -0.022903, -0.284304],
			"normalized": false,
			"type": "VEC3"
		},
		{
			"bufferView": 1,
			"componentType": 5126,
			"count": 54,
			"max": [1, 0.277168, 0.711775, 1],
			"min": [-0.964438, -0.136086, -0.966797, -1],
			"normalized": false,
			"type": "VEC4"
		},
		{
			"bufferView": 2,
			"componentType": 5126,
			"count": 54,
			"max": [0.964224, 0.960788, 0.711669],
			"min": [-0.710495, -1, -0.963902],
			"normalized": false,
			"type": "VEC3"
		},
		{
			"bufferView": 3,
			"componentType": 5126,
			"count": 54,
			"max": [1, 0.87],
			"min": [0, 0],
			"normalized": false,
			"type": "VEC2"
		},
		{
			"bufferView": 15,
			"componentType": 5125,
			"count": 78,
			"max": [53],
			"min": [0],
			"normalized": false,
			"type": "SCALAR"
		},
		{
			"bufferView": 5,
			"componentType": 5126,
			"count": 54,
			"max": [0.289546, 0.708461, 0.09854],
			"min": [0.074622, -0.022903, -0.095786],
			"normalized": false,
			"type": "VEC3"
		},
		{
			"bufferView": 6,
			"componentType": 5126,
			"count": 54,
			"max": [1, 0.187152, 0.948195, 1],
			"min": [-0.6628, -0.027471, -0.749729, -1],
			"normalized": false,
			"type": "VEC4"
		},
		{
			"bufferView": 7,
			"componentType": 5126,
			"count": 54,
			"max": [0.752394, 0.982328, 0.976945],
			"min": [-0.947407, -1, -0.6586],
			"normalized": false,
			"type": "VEC3"
		},
		{
			"bufferView": 8,
			"componentType": 5126,
			"count": 54,
			"max": [1, 0.87],
			"min": [0, 0],
			"normalized": false,
			"type": "VEC2"
		},
		{
			"bufferView": 16,
			"componentType": 5125,
			"count": 78,
			"max": [53],
			"min": [0],
			"normalized": false,
			"type": "SCALAR"
		},
		{
			"bufferView": 10,
			"componentType": 5126,
			"count": 54,
			"max": [0.004101, 0.921844, 0.239915],
			"min": [-0.217003, -0.022903, 0.011453],
			"normalized": false,
			"type": "VEC3"
		},
		{
			"bufferView": 11,
			"componentType": 5126,
			"count": 54,
			"max": [1, 0.187107, 0.970043, 1],
			"min": [-0.961567, -0.090545, -0.693856, -1],
			"normalized": false,
			"type": "VEC4"
		},
		{
			"bufferView": 12,
			"componentType": 5126,
			"count": 54,
			"max": [0.695649, 0.982343, 0.722111],
			"min": [-0.969849, -1, -0.959962],
			"normalized": false,
			"type": "VEC3"
		},
		{
			"bufferView": 13,
			"componentType": 5126,
			"count": 54,
			"max": [1, 0.87],
			"min": [0, 0],
			"normalized": false,
			"type": "VEC2"
		},
		{
			"bufferView": 17,
			"componentType": 5125,
			"count": 78,
			"max": [53],
			"min": [0],
			"normalized": false,
			"type": "SCALAR"
		}
	],
	"asset": {
		"generator": "Godot Engine v4.7.2.stable.official@ed1daf0bf001b61586d9930840f2f1394092c079",
		"version": "2.0"
	},
	"bufferViews": [
		{
			"buffer": 0,
			"byteLength": 648,
			"byteStride": 12,
			"target": 34962
		},
		{
			"buffer": 0,
			"byteLength": 864,
			"byteOffset": 648,
			"byteStride": 16,
			"target": 34962
		},
		{
			"buffer": 0,
			"byteLength": 648,
			"byteOffset": 1512,
			"byteStride": 12,
			"target": 34962
		},
		{
			"buffer": 0,
			"byteLength": 432,
			"byteOffset": 2160,
			"byteStride": 8,
			"target": 34962
		},
		{
			"buffer": 0,
			"byteLength": 78,
			"byteOffset": 2592,
			"target": 34963
		},
		{
			"buffer": 0,
			"byteLength": 648,
			"byteOffset": 2672,
			"byteStride": 12,
			"target": 34962
		},
		{
			"buffer": 0,
			"byteLength": 864,
			"byteOffset": 3320,
			"byteStride": 16,
			"target": 34962
		},
		{
			"buffer": 0,
			"byteLength": 648,
			"byteOffset": 4184,
			"byteStride": 12,
			"target": 34962
		},
		{
			"buffer": 0,
			"byteLength": 432,
			"byteOffset": 4832,
			"byteStride": 8,
			"target": 34962
		},
		{
			"buffer": 0,
			"byteLength": 78,
			"byteOffset": 5264,
			"target": 34963
		},
		{
			"buffer": 0,
			"byteLength": 648,
			"byteOffset": 5344,
			"byteStride": 12,
			"target": 34962
		},
		{
			"buffer": 0,
			"byteLength": 864,
			"byteOffset": 5992,
			"byteStride": 16,
			"target": 34962
		},
		{
			"buffer": 0,
			"byteLength": 648,
			"byteOffset": 6856,
			"byteStride": 12,
			"target": 34962
		},
		{
			"buffer": 0,
			"byteLength": 432,
			"byteOffset": 7504,
			"byteStride": 8,
			"target": 34962
		},
		{
			"buffer": 0,
			"byteLength": 78,
			"byteOffset": 7936,
			"target": 34963
		},
		{
			"buffer": 0,
			"byteOffset": 8016,
			"byteLength": 312
		},
		{
			"buffer": 0,
			"byteOffset": 8328,
			"byteLength": 312
		},
		{
			"buffer": 0,
			"byteOffset": 8640,
			"byteLength": 312
		}
	],
	"buffers": [
		{
			"byteLength": 8952,
			"uri": "Grass_S_flat0.bin"
		}
	],
	"extensionsUsed": [
		"GODOT_single_root"
	],
	"materials": [
		{
			"doubleSided": true,
			"name": "H4B_canopy",
			"pbrMetallicRoughness": {
				"baseColorFactor": [0.064803, 0.371238, 0.074214, 1],
				"metallicFactor": 0,
				"roughnessFactor": 0.5
			}
		},
		{
			"doubleSided": true,
			"name": "H4B_bush_brighter",
			"pbrMetallicRoughness": {
				"baseColorFactor": [0.097586, 0.502887, 0.090842, 1],
				"metallicFactor": 0,
				"roughnessFactor": 0.5
			}
		},
		{
			"doubleSided": true,
			"name": "H4B_bush",
			"pbrMetallicRoughness": {
				"baseColorFactor": [0.035601, 0.283149, 0.076185, 1],
				"metallicFactor": 0,
				"roughnessFactor": 0.5
			}
		}
	],
	"meshes": [
		{
			"name": "Grass_S_flat_Grass_S_flat",
			"primitives": [
				{
					"attributes": {
						"NORMAL": 2,
						"POSITION": 0,
						"TANGENT": 1,
						"TEXCOORD_0": 3
					},
					"indices": 4,
					"material": 0,
					"mode": 4
				},
				{
					"attributes": {
						"NORMAL": 7,
						"POSITION": 5,
						"TANGENT": 6,
						"TEXCOORD_0": 8
					},
					"indices": 9,
					"material": 1,
					"mode": 4
				},
				{
					"attributes": {
						"NORMAL": 12,
						"POSITION": 10,
						"TANGENT": 11,
						"TEXCOORD_0": 13
					},
					"indices": 14,
					"material": 2,
					"mode": 4
				}
			]
		}
	],
	"nodes": [
		{
			"children": [1],
			"name": "Grass_S_flat2"
		},
		{
			"mesh": 0,
			"name": "Grass_S_flat"
		}
	],
	"scene": 0,
	"scenes": [
		{
			"nodes": [0]
		}
	]
}