{
	"accessors": [
		{
			"bufferView": 0,
			"componentType": 5126,
			"count": 736,
			"max": [0.038879, 0.745, 0.250001],
			"min": [-0.039443, 0, -0.250002],
			"normalized": false,
			"type": "VEC3"
		},
		{
			"bufferView": 1,
			"componentType": 5126,
			"count": 736,
			"max": [0.597567, 0.235675, 0.999993, 1],
			"min": [-1, -1, -0.558366, 1],
			"normalized": false,
			"type": "VEC4"
		},
		{
			"bufferView": 2,
			"componentType": 5126,
			"count": 736,
			"max": [0.999994, 1, 1],
			"min": [-0.99995, -1, -1],
			"normalized": false,
			"type": "VEC3"
		},
		{
			"bufferView": 3,
			"componentType": 5126,
			"count": 736,
			"max": [0.46616, 0.335526],
			"min": [0.413905, 0.298076],
			"normalized": false,
			"type": "VEC2"
		},
		{
			"bufferView": 4,
			"componentType": 5123,
			"count": 1086,
			"max": [735],
			"min": [0],
			"normalized": false,
			"type": "SCALAR"
		}
	],
	"asset": {
		"generator": "Godot Engine v4.7.2.stable.official@ed1daf0bf001b61586d9930840f2f1394092c079",
		"version": "2.0"
	},
	"bufferViews": [
		{
			"buffer": 0,
			"byteLength": 8832,
			"byteStride": 12,
			"target": 34962
		},
		{
			"buffer": 0,
			"byteLength": 11776,
			"byteOffset": 8832,
			"byteStride": 16,
			"target": 34962
		},
		{
			"buffer": 0,
			"byteLength": 8832,
			"byteOffset": 20608,
			"byteStride": 12,
			"target": 34962
		},
		{
			"buffer": 0,
			"byteLength": 5888,
			"byteOffset": 29440,
			"byteStride": 8,
			"target": 34962
		},
		{
			"buffer": 0,
			"byteLength": 2172,
			"byteOffset": 35328,
			"target": 34963
		}
	],
	"buffers": [
		{
			"byteLength": 37500,
			"uri": "Prison_Wall_Door0.bin"
		}
	],
	"extensionsUsed": [
		"GODOT_single_root"
	],
	"meshes": [
		{
			"primitives": [
				{
					"attributes": {
						"NORMAL": 2,
						"POSITION": 0,
						"TANGENT": 1,
						"TEXCOORD_0": 3
					},
					"indices": 4,
					"mode": 4
				}
			]
		}
	],
	"nodes": [
		{
			"children": [1],
			"name": "Prison_Wall_Door"
		},
		{
			"mesh": 0,
			"name": "Prison_Wall_Door2"
		}
	],
	"scene": 0,
	"scenes": [
		{
			"nodes": [0]
		}
	]
}