{
	"accessors": [
		{
			"bufferView": 0,
			"componentType": 5126,
			"count": 230,
			"max": [0.038879, 0.745, 0.25],
			"min": [-0.039443, 0, -0.250001],
			"normalized": false,
			"type": "VEC3"
		},
		{
			"bufferView": 1,
			"componentType": 5126,
			"count": 230,
			"max": [0.60139, 0.235675, 0.992912, 1],
			"min": [-1, -0.693416, -0.014098, 1],
			"normalized": false,
			"type": "VEC4"
		},
		{
			"bufferView": 2,
			"componentType": 5126,
			"count": 230,
			"max": [0.992976, 1, 0.775499],
			"min": [-0.992401, -0.999983, -0.775527],
			"normalized": false,
			"type": "VEC3"
		},
		{
			"bufferView": 3,
			"componentType": 5126,
			"count": 230,
			"max": [0.457095, 0.332604],
			"min": [0.406093, 0.294752],
			"normalized": false,
			"type": "VEC2"
		},
		{
			"bufferView": 5,
			"componentType": 5125,
			"count": 348,
			"max": [229],
			"min": [0],
			"normalized": false,
			"type": "SCALAR"
		}
	],
	"asset": {
		"generator": "Godot Engine v4.7.2.stable.official@ed1daf0bf001b61586d9930840f2f1394092c079",
		"version": "2.0"
	},
	"bufferViews": [
		{
			"buffer": 0,
			"byteLength": 2760,
			"byteStride": 12,
			"target": 34962
		},
		{
			"buffer": 0,
			"byteLength": 3680,
			"byteOffset": 2760,
			"byteStride": 16,
			"target": 34962
		},
		{
			"buffer": 0,
			"byteLength": 2760,
			"byteOffset": 6440,
			"byteStride": 12,
			"target": 34962
		},
		{
			"buffer": 0,
			"byteLength": 1840,
			"byteOffset": 9200,
			"byteStride": 8,
			"target": 34962
		},
		{
			"buffer": 0,
			"byteLength": 348,
			"byteOffset": 11040,
			"target": 34963
		},
		{
			"buffer": 0,
			"byteOffset": 11388,
			"byteLength": 1392
		}
	],
	"buffers": [
		{
			"byteLength": 12780,
			"uri": "Prison_Half_Wall0.bin"
		}
	],
	"extensionsUsed": [
		"GODOT_single_root",
		"KHR_materials_emissive_strength"
	],
	"images": [
		{
			"name": "Texture2",
			"uri": "../textures/Texture2.png"
		}
	],
	"materials": [
		{
			"emissiveFactor": [0.957641, 0.957641, 0.957641],
			"extensions": {
				"KHR_materials_emissive_strength": {
					"emissiveStrength": 0
				}
			},
			"name": "Texture",
			"pbrMetallicRoughness": {
				"baseColorFactor": [0.8, 0.8, 0.8, 0.8],
				"baseColorTexture": {
					"index": 0
				},
				"metallicFactor": 0,
				"roughnessFactor": 1
			}
		}
	],
	"meshes": [
		{
			"primitives": [
				{
					"attributes": {
						"NORMAL": 2,
						"POSITION": 0,
						"TANGENT": 1,
						"TEXCOORD_0": 3
					},
					"indices": 4,
					"material": 0,
					"mode": 4
				}
			]
		}
	],
	"nodes": [
		{
			"children": [1],
			"name": "Prison_Half_Wall"
		},
		{
			"mesh": 0,
			"name": "Prison_Half_Wall2"
		}
	],
	"samplers": [
		{
			"magFilter": 9729,
			"minFilter": 9987,
			"wrapS": 10497,
			"wrapT": 10497
		}
	],
	"scene": 0,
	"scenes": [
		{
			"nodes": [0]
		}
	],
	"textures": [
		{
			"sampler": 0,
			"source": 0
		}
	]
}