{
	"accessors": [
		{
			"bufferView": 0,
			"componentType": 5126,
			"count": 2210,
			"max": [399.546936, 400, 399.546936],
			"min": [-399.546936, -400, -399.546936],
			"normalized": false,
			"type": "VEC3"
		},
		{
			"bufferView": 1,
			"componentType": 5126,
			"count": 2210,
			"max": [1, 0, 1, 1],
			"min": [-1, -0.000022, -1, 1],
			"normalized": false,
			"type": "VEC4"
		},
		{
			"bufferView": 2,
			"componentType": 5126,
			"count": 2210,
			"max": [0.998868, 1, 0.998868],
			"min": [-0.998869, -1, -0.998867],
			"normalized": false,
			"type": "VEC3"
		},
		{
			"bufferView": 3,
			"componentType": 5126,
			"count": 2210,
			"max": [1, 1],
			"min": [0, 0],
			"normalized": false,
			"type": "VEC2"
		},
		{
			"bufferView": 4,
			"componentType": 5123,
			"count": 12672,
			"max": [2209],
			"min": [0],
			"normalized": false,
			"type": "SCALAR"
		}
	],
	"asset": {
		"generator": "Godot Engine v4.7.2.stable.official@ed1daf0bf001b61586d9930840f2f1394092c079",
		"version": "2.0"
	},
	"bufferViews": [
		{
			"buffer": 0,
			"byteLength": 26520,
			"byteStride": 12,
			"target": 34962
		},
		{
			"buffer": 0,
			"byteLength": 35360,
			"byteOffset": 26520,
			"byteStride": 16,
			"target": 34962
		},
		{
			"buffer": 0,
			"byteLength": 26520,
			"byteOffset": 61880,
			"byteStride": 12,
			"target": 34962
		},
		{
			"buffer": 0,
			"byteLength": 17680,
			"byteOffset": 88400,
			"byteStride": 8,
			"target": 34962
		},
		{
			"buffer": 0,
			"byteLength": 25344,
			"byteOffset": 106080,
			"target": 34963
		}
	],
	"buffers": [
		{
			"byteLength": 131424,
			"uri": "skybox0.bin"
		}
	],
	"extensionsUsed": [
		"GODOT_single_root",
		"KHR_materials_unlit"
	],
	"images": [
		{
			"name": "Skybox_Puresky",
			"uri": "../textures/Skybox_Puresky.png"
		}
	],
	"materials": [
		{
			"extensions": {
				"KHR_materials_unlit": {}
			},
			"name": "Skybox_Mat",
			"pbrMetallicRoughness": {
				"baseColorFactor": [1, 1, 1, 1],
				"baseColorTexture": {
					"index": 0
				},
				"metallicFactor": 0,
				"roughnessFactor": 1
			}
		}
	],
	"meshes": [
		{
			"primitives": [
				{
					"attributes": {
						"NORMAL": 2,
						"POSITION": 0,
						"TANGENT": 1,
						"TEXCOORD_0": 3
					},
					"indices": 4,
					"material": 0,
					"mode": 4
				}
			]
		}
	],
	"nodes": [
		{
			"children": [1],
			"name": "Skybox"
		},
		{
			"mesh": 0,
			"name": "Mesh"
		}
	],
	"samplers": [
		{
			"magFilter": 9729,
			"minFilter": 9987,
			"wrapS": 10497,
			"wrapT": 10497
		}
	],
	"scene": 0,
	"scenes": [
		{
			"nodes": [0]
		}
	],
	"textures": [
		{
			"sampler": 0,
			"source": 0
		}
	]
}