{
	"accessors": [
		{
			"bufferView": 0,
			"componentType": 5126,
			"count": 482,
			"max": [0.176517, 0.195392, 0.206922],
			"min": [-0.176516, -0.195391, -0.113456],
			"normalized": false,
			"type": "VEC3"
		},
		{
			"bufferView": 1,
			"componentType": 5126,
			"count": 482,
			"max": [0.710737, 0.551861, 0.999639, 1],
			"min": [-1, -1, -0.528567, 1],
			"normalized": false,
			"type": "VEC4"
		},
		{
			"bufferView": 2,
			"componentType": 5126,
			"count": 482,
			"max": [0.999639, 1, 1],
			"min": [-0.99964, -0.937695, -1],
			"normalized": false,
			"type": "VEC3"
		},
		{
			"bufferView": 3,
			"componentType": 5126,
			"count": 482,
			"max": [0.453628, 0.332181],
			"min": [0.029266, 0.178596],
			"normalized": false,
			"type": "VEC2"
		},
		{
			"bufferView": 4,
			"componentType": 5123,
			"count": 663,
			"max": [481],
			"min": [0],
			"normalized": false,
			"type": "SCALAR"
		}
	],
	"asset": {
		"generator": "Godot Engine v4.7.2.stable.official@ed1daf0bf001b61586d9930840f2f1394092c079",
		"version": "2.0"
	},
	"bufferViews": [
		{
			"buffer": 0,
			"byteLength": 5784,
			"byteStride": 12,
			"target": 34962
		},
		{
			"buffer": 0,
			"byteLength": 7712,
			"byteOffset": 5784,
			"byteStride": 16,
			"target": 34962
		},
		{
			"buffer": 0,
			"byteLength": 5784,
			"byteOffset": 13496,
			"byteStride": 12,
			"target": 34962
		},
		{
			"buffer": 0,
			"byteLength": 3856,
			"byteOffset": 19280,
			"byteStride": 8,
			"target": 34962
		},
		{
			"buffer": 0,
			"byteLength": 1326,
			"byteOffset": 23136,
			"target": 34963
		}
	],
	"buffers": [
		{
			"byteLength": 24462,
			"uri": "Spin_Blade_Trap0.bin"
		}
	],
	"extensionsUsed": [
		"GODOT_single_root"
	],
	"meshes": [
		{
			"primitives": [
				{
					"attributes": {
						"NORMAL": 2,
						"POSITION": 0,
						"TANGENT": 1,
						"TEXCOORD_0": 3
					},
					"indices": 4,
					"mode": 4
				}
			]
		}
	],
	"nodes": [
		{
			"children": [1],
			"name": "Spin_Blade_Trap"
		},
		{
			"mesh": 0,
			"name": "Spin_Blade_Trap2"
		}
	],
	"scene": 0,
	"scenes": [
		{
			"nodes": [0]
		}
	]
}