{
	"accessors": [
		{
			"bufferView": 0,
			"componentType": 5126,
			"count": 2339,
			"max": [0.39211, 0.756265, 0.280891],
			"min": [0.052508, -0.000319, -0.285968],
			"normalized": false,
			"type": "VEC3"
		},
		{
			"bufferView": 1,
			"componentType": 5126,
			"count": 2339,
			"max": [0.999846, 0.999902, 0.999935, 1],
			"min": [-0.999544, -0.999372, -0.996737, 1],
			"normalized": false,
			"type": "VEC4"
		},
		{
			"bufferView": 2,
			"componentType": 5126,
			"count": 2339,
			"max": [0.993809, 1, 1],
			"min": [-0.994919, -0.996361, -1],
			"normalized": false,
			"type": "VEC3"
		},
		{
			"bufferView": 3,
			"componentType": 5126,
			"count": 2339,
			"max": [0.573282, 0.083593],
			"min": [0.296894, 0.038248],
			"normalized": false,
			"type": "VEC2"
		},
		{
			"bufferView": 4,
			"componentType": 5123,
			"count": 3303,
			"max": [2338],
			"min": [0],
			"normalized": false,
			"type": "SCALAR"
		}
	],
	"asset": {
		"generator": "Godot Engine v4.7.2.stable.official@ed1daf0bf001b61586d9930840f2f1394092c079",
		"version": "2.0"
	},
	"bufferViews": [
		{
			"buffer": 0,
			"byteLength": 28068,
			"byteStride": 12,
			"target": 34962
		},
		{
			"buffer": 0,
			"byteLength": 37424,
			"byteOffset": 28068,
			"byteStride": 16,
			"target": 34962
		},
		{
			"buffer": 0,
			"byteLength": 28068,
			"byteOffset": 65492,
			"byteStride": 12,
			"target": 34962
		},
		{
			"buffer": 0,
			"byteLength": 18712,
			"byteOffset": 93560,
			"byteStride": 8,
			"target": 34962
		},
		{
			"buffer": 0,
			"byteLength": 6606,
			"byteOffset": 112272,
			"target": 34963
		}
	],
	"buffers": [
		{
			"byteLength": 118878,
			"uri": "Stone_Statue0.bin"
		}
	],
	"extensionsUsed": [
		"GODOT_single_root",
		"KHR_materials_emissive_strength"
	],
	"images": [
		{
			"name": "Texture2",
			"uri": "textures%2FTexture2.png"
		}
	],
	"materials": [
		{
			"emissiveFactor": [0.957641, 0.957641, 0.957641],
			"extensions": {
				"KHR_materials_emissive_strength": {
					"emissiveStrength": 0
				}
			},
			"name": "Texture",
			"pbrMetallicRoughness": {
				"baseColorFactor": [0.8, 0.8, 0.8, 0.8],
				"baseColorTexture": {
					"index": 0
				},
				"metallicFactor": 0,
				"roughnessFactor": 1
			}
		}
	],
	"meshes": [
		{
			"name": "Stone_Statue3",
			"primitives": [
				{
					"attributes": {
						"NORMAL": 2,
						"POSITION": 0,
						"TANGENT": 1,
						"TEXCOORD_0": 3
					},
					"indices": 4,
					"material": 0,
					"mode": 4
				}
			]
		}
	],
	"nodes": [
		{
			"children": [1],
			"name": "Stone_Statue"
		},
		{
			"mesh": 0,
			"name": "Stone_Statue2"
		}
	],
	"samplers": [
		{
			"magFilter": 9729,
			"minFilter": 9987,
			"wrapS": 10497,
			"wrapT": 10497
		}
	],
	"scene": 0,
	"scenes": [
		{
			"nodes": [0]
		}
	],
	"textures": [
		{
			"sampler": 0,
			"source": 0
		}
	]
}