{
	"accessors": [
		{
			"bufferView": 0,
			"componentType": 5126,
			"count": 156,
			"max": [0.449308, 16.636021, 0.436759],
			"min": [-0.324666, -0.045651, -0.366976],
			"normalized": false,
			"type": "VEC3"
		},
		{
			"bufferView": 1,
			"componentType": 5126,
			"count": 156,
			"max": [0.951059, 0.00022, 0.978169, 1],
			"min": [-0.951043, -0.000191, -0.978183, -1],
			"normalized": false,
			"type": "VEC4"
		},
		{
			"bufferView": 2,
			"componentType": 5126,
			"count": 156,
			"max": [0.978168, 1, 0.951018],
			"min": [-0.978052, -1, -0.950911],
			"normalized": false,
			"type": "VEC3"
		},
		{
			"bufferView": 3,
			"componentType": 5126,
			"count": 156,
			"max": [0.158936, 0.99],
			"min": [0.158691, 0],
			"normalized": false,
			"type": "VEC2"
		},
		{
			"bufferView": 10,
			"componentType": 5125,
			"count": 240,
			"max": [155],
			"min": [0],
			"normalized": false,
			"type": "SCALAR"
		},
		{
			"bufferView": 5,
			"componentType": 5126,
			"count": 2638,
			"max": [3.728781, 16.01638, 4.023303],
			"min": [-4.194317, 3.090118, -4.160379],
			"normalized": false,
			"type": "VEC3"
		},
		{
			"bufferView": 6,
			"componentType": 5126,
			"count": 2638,
			"max": [1, 0, -0.000015, 1],
			"min": [1, 0, -0.000046, -1],
			"normalized": false,
			"type": "VEC4"
		},
		{
			"bufferView": 7,
			"componentType": 5126,
			"count": 2638,
			"max": [0.993962, 0.979776, 0.999864],
			"min": [-0.998295, -0.99992, -0.999912],
			"normalized": false,
			"type": "VEC3"
		},
		{
			"bufferView": 8,
			"componentType": 5126,
			"count": 2638,
			"max": [0.19043, 1],
			"min": [0.19043, 1],
			"normalized": false,
			"type": "VEC2"
		},
		{
			"bufferView": 9,
			"componentType": 5123,
			"count": 4488,
			"max": [2637],
			"min": [0],
			"normalized": false,
			"type": "SCALAR"
		}
	],
	"asset": {
		"generator": "Godot Engine v4.7.2.stable.official@ed1daf0bf001b61586d9930840f2f1394092c079",
		"version": "2.0"
	},
	"bufferViews": [
		{
			"buffer": 0,
			"byteLength": 1872,
			"byteStride": 12,
			"target": 34962
		},
		{
			"buffer": 0,
			"byteLength": 2496,
			"byteOffset": 1872,
			"byteStride": 16,
			"target": 34962
		},
		{
			"buffer": 0,
			"byteLength": 1872,
			"byteOffset": 4368,
			"byteStride": 12,
			"target": 34962
		},
		{
			"buffer": 0,
			"byteLength": 1248,
			"byteOffset": 6240,
			"byteStride": 8,
			"target": 34962
		},
		{
			"buffer": 0,
			"byteLength": 240,
			"byteOffset": 7488,
			"target": 34963
		},
		{
			"buffer": 0,
			"byteLength": 31656,
			"byteOffset": 7728,
			"byteStride": 12,
			"target": 34962
		},
		{
			"buffer": 0,
			"byteLength": 42208,
			"byteOffset": 39384,
			"byteStride": 16,
			"target": 34962
		},
		{
			"buffer": 0,
			"byteLength": 31656,
			"byteOffset": 81592,
			"byteStride": 12,
			"target": 34962
		},
		{
			"buffer": 0,
			"byteLength": 21104,
			"byteOffset": 113248,
			"byteStride": 8,
			"target": 34962
		},
		{
			"buffer": 0,
			"byteLength": 8976,
			"byteOffset": 134352,
			"target": 34963
		},
		{
			"buffer": 0,
			"byteOffset": 143328,
			"byteLength": 960
		}
	],
	"buffers": [
		{
			"byteLength": 144288,
			"uri": "Tree_Pine_S_flat0.bin"
		}
	],
	"extensionsUsed": [
		"GODOT_single_root"
	],
	"images": [
		{
			"name": "Flat_Atlas",
			"uri": "../textures/Flat_Atlas.png"
		}
	],
	"materials": [
		{
			"doubleSided": true,
			"name": "H4B_trunk",
			"pbrMetallicRoughness": {
				"baseColorFactor": [0.262249, 0.057805, 0.049707, 1],
				"baseColorTexture": {
					"index": 0
				},
				"metallicFactor": 0,
				"roughnessFactor": 0.5
			}
		},
		{
			"doubleSided": true,
			"name": "H4B_pine",
			"pbrMetallicRoughness": {
				"baseColorFactor": [0.046665, 0.138432, 0.026241, 1],
				"baseColorTexture": {
					"index": 1
				},
				"metallicFactor": 0,
				"roughnessFactor": 0.5
			}
		}
	],
	"meshes": [
		{
			"primitives": [
				{
					"attributes": {
						"NORMAL": 2,
						"POSITION": 0,
						"TANGENT": 1,
						"TEXCOORD_0": 3
					},
					"indices": 4,
					"material": 0,
					"mode": 4
				},
				{
					"attributes": {
						"NORMAL": 7,
						"POSITION": 5,
						"TANGENT": 6,
						"TEXCOORD_0": 8
					},
					"indices": 9,
					"material": 1,
					"mode": 4
				}
			]
		}
	],
	"nodes": [
		{
			"children": [1],
			"name": "Tree_Pine_S_flat2"
		},
		{
			"mesh": 0,
			"name": "Tree_Pine_S_flat"
		}
	],
	"samplers": [
		{
			"magFilter": 9729,
			"minFilter": 9987,
			"wrapS": 10497,
			"wrapT": 10497
		}
	],
	"scene": 0,
	"scenes": [
		{
			"nodes": [0]
		}
	],
	"textures": [
		{
			"sampler": 0,
			"source": 0
		},
		{
			"sampler": 0,
			"source": 0
		}
	]
}