{
	"accessors": [
		{
			"bufferView": 0,
			"componentType": 5126,
			"count": 480,
			"max": [-18.083473, 7.143978, -46.638237],
			"min": [-24.315273, 3.438455, -51.93079],
			"normalized": false,
			"type": "VEC3"
		},
		{
			"bufferView": 1,
			"componentType": 5126,
			"count": 480,
			"max": [0.996283, 0.99101, 0.974133, 1],
			"min": [-0.996287, -0.991015, -0.974111, 1],
			"normalized": false,
			"type": "VEC4"
		},
		{
			"bufferView": 2,
			"componentType": 5126,
			"count": 480,
			"max": [0.995507, 0.957214, 0.978609],
			"min": [-0.99553, -0.957167, -0.978624],
			"normalized": false,
			"type": "VEC3"
		},
		{
			"bufferView": 3,
			"componentType": 5126,
			"count": 480,
			"max": [0.333496, 1],
			"min": [0.333252, 0.527611],
			"normalized": false,
			"type": "VEC2"
		},
		{
			"bufferView": 4,
			"componentType": 5123,
			"count": 480,
			"max": [479],
			"min": [0],
			"normalized": false,
			"type": "SCALAR"
		},
		{
			"bufferView": 5,
			"componentType": 5126,
			"count": 918,
			"max": [-19.157707, 5.708485, -47.605934],
			"min": [-22.582409, 0.01376, -50.983505],
			"normalized": false,
			"type": "VEC3"
		},
		{
			"bufferView": 6,
			"componentType": 5126,
			"count": 918,
			"max": [1, 0, -0.000015, 1],
			"min": [1, 0, -0.000046, -1],
			"normalized": false,
			"type": "VEC4"
		},
		{
			"bufferView": 7,
			"componentType": 5126,
			"count": 918,
			"max": [0.99969, 1, 0.998622],
			"min": [-0.996552, -1, -0.99959],
			"normalized": false,
			"type": "VEC3"
		},
		{
			"bufferView": 8,
			"componentType": 5126,
			"count": 918,
			"max": [0.349121, 1],
			"min": [0.349121, 1],
			"normalized": false,
			"type": "VEC2"
		},
		{
			"bufferView": 9,
			"componentType": 5123,
			"count": 1746,
			"max": [917],
			"min": [0],
			"normalized": false,
			"type": "SCALAR"
		}
	],
	"asset": {
		"generator": "Godot Engine v4.7.2.stable.official@ed1daf0bf001b61586d9930840f2f1394092c079",
		"version": "2.0"
	},
	"bufferViews": [
		{
			"buffer": 0,
			"byteLength": 5760,
			"byteStride": 12,
			"target": 34962
		},
		{
			"buffer": 0,
			"byteLength": 7680,
			"byteOffset": 5760,
			"byteStride": 16,
			"target": 34962
		},
		{
			"buffer": 0,
			"byteLength": 5760,
			"byteOffset": 13440,
			"byteStride": 12,
			"target": 34962
		},
		{
			"buffer": 0,
			"byteLength": 3840,
			"byteOffset": 19200,
			"byteStride": 8,
			"target": 34962
		},
		{
			"buffer": 0,
			"byteLength": 960,
			"byteOffset": 23040,
			"target": 34963
		},
		{
			"buffer": 0,
			"byteLength": 11016,
			"byteOffset": 24000,
			"byteStride": 12,
			"target": 34962
		},
		{
			"buffer": 0,
			"byteLength": 14688,
			"byteOffset": 35016,
			"byteStride": 16,
			"target": 34962
		},
		{
			"buffer": 0,
			"byteLength": 11016,
			"byteOffset": 49704,
			"byteStride": 12,
			"target": 34962
		},
		{
			"buffer": 0,
			"byteLength": 7344,
			"byteOffset": 60720,
			"byteStride": 8,
			"target": 34962
		},
		{
			"buffer": 0,
			"byteLength": 3492,
			"byteOffset": 68064,
			"target": 34963
		}
	],
	"buffers": [
		{
			"byteLength": 71556,
			"uri": "tree60.bin"
		}
	],
	"extensionsUsed": [
		"GODOT_single_root"
	],
	"images": [
		{
			"name": "Flat_Atlas",
			"uri": "../textures/Flat_Atlas.png"
		}
	],
	"materials": [
		{
			"doubleSided": true,
			"name": "tree63",
			"pbrMetallicRoughness": {
				"baseColorFactor": [0, 0.101835, 0.024798, 1],
				"baseColorTexture": {
					"index": 0
				},
				"metallicFactor": 0,
				"roughnessFactor": 0.5
			}
		},
		{
			"doubleSided": true,
			"name": "tree6 trunk",
			"pbrMetallicRoughness": {
				"baseColorFactor": [0.060453, 0.015466, 0, 1],
				"baseColorTexture": {
					"index": 1
				},
				"metallicFactor": 0,
				"roughnessFactor": 0.75641
			}
		}
	],
	"meshes": [
		{
			"primitives": [
				{
					"attributes": {
						"NORMAL": 2,
						"POSITION": 0,
						"TANGENT": 1,
						"TEXCOORD_0": 3
					},
					"indices": 4,
					"material": 0,
					"mode": 4
				},
				{
					"attributes": {
						"NORMAL": 7,
						"POSITION": 5,
						"TANGENT": 6,
						"TEXCOORD_0": 8
					},
					"indices": 9,
					"material": 1,
					"mode": 4
				}
			]
		}
	],
	"nodes": [
		{
			"children": [1],
			"name": "tree62"
		},
		{
			"mesh": 0,
			"name": "tree6"
		}
	],
	"samplers": [
		{
			"magFilter": 9729,
			"minFilter": 9987,
			"wrapS": 10497,
			"wrapT": 10497
		}
	],
	"scene": 0,
	"scenes": [
		{
			"nodes": [0]
		}
	],
	"textures": [
		{
			"sampler": 0,
			"source": 0
		},
		{
			"sampler": 0,
			"source": 0
		}
	]
}