{
	"accessors": [
		{
			"bufferView": 0,
			"componentType": 5126,
			"count": 600,
			"max": [2.470357, 8.620882, 2.666337],
			"min": [-2.848521, -0.053613, -2.671269],
			"normalized": false,
			"type": "VEC3"
		},
		{
			"bufferView": 1,
			"componentType": 5126,
			"count": 600,
			"max": [0.776573, 0.745504, 0.998071, 1],
			"min": [-1, -0.994662, -0.74706, 1],
			"normalized": false,
			"type": "VEC4"
		},
		{
			"bufferView": 2,
			"componentType": 5126,
			"count": 600,
			"max": [0.997042, 1, 0.993484],
			"min": [-0.998024, -1, -0.994491],
			"normalized": false,
			"type": "VEC3"
		},
		{
			"bufferView": 3,
			"componentType": 5126,
			"count": 600,
			"max": [0.158936, 0.993378],
			"min": [0.095219, 0],
			"normalized": false,
			"type": "VEC2"
		},
		{
			"bufferView": 4,
			"componentType": 5123,
			"count": 1296,
			"max": [599],
			"min": [0],
			"normalized": false,
			"type": "SCALAR"
		}
	],
	"asset": {
		"generator": "Godot Engine v4.7.2.stable.official@ed1daf0bf001b61586d9930840f2f1394092c079",
		"version": "2.0"
	},
	"bufferViews": [
		{
			"buffer": 0,
			"byteLength": 7200,
			"byteStride": 12,
			"target": 34962
		},
		{
			"buffer": 0,
			"byteLength": 9600,
			"byteOffset": 7200,
			"byteStride": 16,
			"target": 34962
		},
		{
			"buffer": 0,
			"byteLength": 7200,
			"byteOffset": 16800,
			"byteStride": 12,
			"target": 34962
		},
		{
			"buffer": 0,
			"byteLength": 4800,
			"byteOffset": 24000,
			"byteStride": 8,
			"target": 34962
		},
		{
			"buffer": 0,
			"byteLength": 2592,
			"byteOffset": 28800,
			"target": 34963
		}
	],
	"buffers": [
		{
			"byteLength": 31392,
			"uri": "Tree_Park_S_Orange_flat0.bin"
		}
	],
	"extensionsUsed": [
		"GODOT_single_root"
	],
	"images": [
		{
			"name": "Flat_Atlas",
			"uri": "../textures/Flat_Atlas.png"
		}
	],
	"materials": [
		{
			"doubleSided": true,
			"name": "H4B_trunk",
			"pbrMetallicRoughness": {
				"baseColorFactor": [0.262249, 0.057805, 0.049707, 1],
				"baseColorTexture": {
					"index": 0
				},
				"metallicFactor": 0,
				"roughnessFactor": 0.5
			}
		}
	],
	"meshes": [
		{
			"primitives": [
				{
					"attributes": {
						"NORMAL": 2,
						"POSITION": 0,
						"TANGENT": 1,
						"TEXCOORD_0": 3
					},
					"indices": 4,
					"material": 0,
					"mode": 4
				}
			]
		}
	],
	"nodes": [
		{
			"children": [1],
			"name": "Tree_Park_S_Orange_flat2"
		},
		{
			"mesh": 0,
			"name": "Tree_Park_S_Orange_flat"
		}
	],
	"samplers": [
		{
			"magFilter": 9729,
			"minFilter": 9987,
			"wrapS": 10497,
			"wrapT": 10497
		}
	],
	"scene": 0,
	"scenes": [
		{
			"nodes": [0]
		}
	],
	"textures": [
		{
			"sampler": 0,
			"source": 0
		}
	]
}