{
	"accessors": [
		{
			"bufferView": 0,
			"componentType": 5126,
			"count": 168,
			"max": [0.234025, 3.151938, 0.22593],
			"min": [-0.862519, -0.020651, -0.249183],
			"normalized": false,
			"type": "VEC3"
		},
		{
			"bufferView": 1,
			"componentType": 5126,
			"count": 168,
			"max": [1, 0.774907, 1, 1],
			"min": [-0.866063, -0.731598, -1, -1],
			"normalized": false,
			"type": "VEC4"
		},
		{
			"bufferView": 2,
			"componentType": 5126,
			"count": 168,
			"max": [0.99966, 1, 0.899604],
			"min": [-0.998584, -1, -0.895889],
			"normalized": false,
			"type": "VEC3"
		},
		{
			"bufferView": 3,
			"componentType": 5126,
			"count": 168,
			"max": [0.158936, 0.99],
			"min": [0.158691, 0],
			"normalized": false,
			"type": "VEC2"
		},
		{
			"bufferView": 10,
			"componentType": 5125,
			"count": 264,
			"max": [167],
			"min": [0],
			"normalized": false,
			"type": "SCALAR"
		},
		{
			"bufferView": 5,
			"componentType": 5126,
			"count": 516,
			"max": [4.239519, 12.39307, 3.914947],
			"min": [-4.495602, 3.025078, -3.50867],
			"normalized": false,
			"type": "VEC3"
		},
		{
			"bufferView": 6,
			"componentType": 5126,
			"count": 516,
			"max": [0.998454, 0.612072, 0.999732, 1],
			"min": [-0.998173, -0.684016, -0.997838, 1],
			"normalized": false,
			"type": "VEC4"
		},
		{
			"bufferView": 7,
			"componentType": 5126,
			"count": 516,
			"max": [0.987681, 0.949159, 0.995151],
			"min": [-0.975094, -0.999332, -0.99803],
			"normalized": false,
			"type": "VEC3"
		},
		{
			"bufferView": 8,
			"componentType": 5126,
			"count": 516,
			"max": [0.174803, 0.993378],
			"min": [0.174564, 0.537453],
			"normalized": false,
			"type": "VEC2"
		},
		{
			"bufferView": 9,
			"componentType": 5123,
			"count": 516,
			"max": [515],
			"min": [0],
			"normalized": false,
			"type": "SCALAR"
		}
	],
	"asset": {
		"generator": "Godot Engine v4.7.2.stable.official@ed1daf0bf001b61586d9930840f2f1394092c079",
		"version": "2.0"
	},
	"bufferViews": [
		{
			"buffer": 0,
			"byteLength": 2016,
			"byteStride": 12,
			"target": 34962
		},
		{
			"buffer": 0,
			"byteLength": 2688,
			"byteOffset": 2016,
			"byteStride": 16,
			"target": 34962
		},
		{
			"buffer": 0,
			"byteLength": 2016,
			"byteOffset": 4704,
			"byteStride": 12,
			"target": 34962
		},
		{
			"buffer": 0,
			"byteLength": 1344,
			"byteOffset": 6720,
			"byteStride": 8,
			"target": 34962
		},
		{
			"buffer": 0,
			"byteLength": 264,
			"byteOffset": 8064,
			"target": 34963
		},
		{
			"buffer": 0,
			"byteLength": 6192,
			"byteOffset": 8328,
			"byteStride": 12,
			"target": 34962
		},
		{
			"buffer": 0,
			"byteLength": 8256,
			"byteOffset": 14520,
			"byteStride": 16,
			"target": 34962
		},
		{
			"buffer": 0,
			"byteLength": 6192,
			"byteOffset": 22776,
			"byteStride": 12,
			"target": 34962
		},
		{
			"buffer": 0,
			"byteLength": 4128,
			"byteOffset": 28968,
			"byteStride": 8,
			"target": 34962
		},
		{
			"buffer": 0,
			"byteLength": 1032,
			"byteOffset": 33096,
			"target": 34963
		},
		{
			"buffer": 0,
			"byteOffset": 34128,
			"byteLength": 1056
		}
	],
	"buffers": [
		{
			"byteLength": 35184,
			"uri": "Tree_Maple_flat0.bin"
		}
	],
	"extensionsUsed": [
		"GODOT_single_root"
	],
	"images": [
		{
			"name": "Flat_Atlas",
			"uri": "../textures/Flat_Atlas.png"
		}
	],
	"materials": [
		{
			"doubleSided": true,
			"name": "H4B_trunk",
			"pbrMetallicRoughness": {
				"baseColorFactor": [0.262249, 0.057805, 0.049707, 1],
				"baseColorTexture": {
					"index": 0
				},
				"metallicFactor": 0,
				"roughnessFactor": 0.5
			}
		},
		{
			"doubleSided": true,
			"name": "H4B_grass",
			"pbrMetallicRoughness": {
				"baseColorFactor": [0.082282, 0.423268, 0.084376, 1],
				"baseColorTexture": {
					"index": 1
				},
				"metallicFactor": 0,
				"roughnessFactor": 0.5
			}
		}
	],
	"meshes": [
		{
			"primitives": [
				{
					"attributes": {
						"NORMAL": 2,
						"POSITION": 0,
						"TANGENT": 1,
						"TEXCOORD_0": 3
					},
					"indices": 4,
					"material": 0,
					"mode": 4
				},
				{
					"attributes": {
						"NORMAL": 7,
						"POSITION": 5,
						"TANGENT": 6,
						"TEXCOORD_0": 8
					},
					"indices": 9,
					"material": 1,
					"mode": 4
				}
			]
		}
	],
	"nodes": [
		{
			"children": [1],
			"name": "Tree_Maple_flat2"
		},
		{
			"mesh": 0,
			"name": "Tree_Maple_flat"
		}
	],
	"samplers": [
		{
			"magFilter": 9729,
			"minFilter": 9987,
			"wrapS": 10497,
			"wrapT": 10497
		}
	],
	"scene": 0,
	"scenes": [
		{
			"nodes": [0]
		}
	],
	"textures": [
		{
			"sampler": 0,
			"source": 0
		},
		{
			"sampler": 0,
			"source": 0
		}
	]
}