{
	"accessors": [
		{
			"bufferView": 0,
			"componentType": 5126,
			"count": 304,
			"max": [0.414422, 2.599999, 2],
			"min": [-0.414422, -0.000001, -2],
			"normalized": false,
			"type": "VEC3"
		},
		{
			"bufferView": 1,
			"componentType": 5126,
			"count": 304,
			"max": [1, 0.382322, 1, 1],
			"min": [-1, -0.382419, -0.354793, 1],
			"normalized": false,
			"type": "VEC4"
		},
		{
			"bufferView": 2,
			"componentType": 5126,
			"count": 304,
			"max": [1, 1, 1],
			"min": [-1, -1, -1],
			"normalized": false,
			"type": "VEC3"
		},
		{
			"bufferView": 3,
			"componentType": 5126,
			"count": 304,
			"max": [0.085157, 0.075077],
			"min": [0.0197, 0.011071],
			"normalized": false,
			"type": "VEC2"
		},
		{
			"bufferView": 4,
			"componentType": 5123,
			"count": 468,
			"max": [303],
			"min": [0],
			"normalized": false,
			"type": "SCALAR"
		}
	],
	"asset": {
		"generator": "Godot Engine v4.7.2.stable.official@ed1daf0bf001b61586d9930840f2f1394092c079",
		"version": "2.0"
	},
	"bufferViews": [
		{
			"buffer": 0,
			"byteLength": 3648,
			"byteStride": 12,
			"target": 34962
		},
		{
			"buffer": 0,
			"byteLength": 4864,
			"byteOffset": 3648,
			"byteStride": 16,
			"target": 34962
		},
		{
			"buffer": 0,
			"byteLength": 3648,
			"byteOffset": 8512,
			"byteStride": 12,
			"target": 34962
		},
		{
			"buffer": 0,
			"byteLength": 2432,
			"byteOffset": 12160,
			"byteStride": 8,
			"target": 34962
		},
		{
			"buffer": 0,
			"byteLength": 936,
			"byteOffset": 14592,
			"target": 34963
		}
	],
	"buffers": [
		{
			"byteLength": 15528,
			"uri": "Wall20.bin"
		}
	],
	"extensionsUsed": [
		"GODOT_single_root"
	],
	"images": [
		{
			"name": "Texture Atlas2",
			"uri": "../textures/Texture%20Atlas2.png"
		}
	],
	"materials": [
		{
			"emissiveFactor": [0, 0, 0],
			"name": "Texture Atlas",
			"pbrMetallicRoughness": {
				"baseColorFactor": [1, 1, 1, 1],
				"baseColorTexture": {
					"index": 0
				},
				"metallicFactor": 0,
				"roughnessFactor": 1
			}
		}
	],
	"meshes": [
		{
			"primitives": [
				{
					"attributes": {
						"NORMAL": 2,
						"POSITION": 0,
						"TANGENT": 1,
						"TEXCOORD_0": 3
					},
					"indices": 4,
					"material": 0,
					"mode": 4
				}
			]
		}
	],
	"nodes": [
		{
			"children": [1],
			"name": "Wall"
		},
		{
			"mesh": 0,
			"name": "Wall2"
		}
	],
	"samplers": [
		{
			"magFilter": 9729,
			"minFilter": 9987,
			"wrapS": 10497,
			"wrapT": 10497
		}
	],
	"scene": 0,
	"scenes": [
		{
			"nodes": [0]
		}
	],
	"textures": [
		{
			"sampler": 0,
			"source": 0
		}
	]
}